<svg width="176" height="26" viewBox="0 0 176 26" fill="none" xmlns="http://www.w3.org/2000/svg">
<g clip-path="url(#clip0_62_65)">
<path fill-rule="evenodd" clip-rule="evenodd" d="M4.24036 0L13.2841 13.9818L10.9527 17.5687L4.49429 7.56801V25.2593H0V0H4.24036ZM140.431 2.22005V7.43349H144.616V10.5951H140.431V19.1714C140.431 21.1223 141.072 22.0306 143.164 22.0306C143.671 22.0306 144.211 22.0306 144.616 21.9968V25.1583C143.975 25.2255 143.198 25.2593 142.49 25.2593L142.364 25.2588C138.235 25.2221 136.449 23.3657 136.449 19.0372V10.5951H133.378V7.43349H136.449V2.22005H140.431ZM25.2386 0V25.2593H20.7444V0H25.2386ZM127.746 2.22005V7.43349H131.93V10.5951H127.746V19.1714C127.746 21.1223 128.386 22.0306 130.479 22.0306C130.985 22.0306 131.525 22.0306 131.93 21.9968V25.1583C131.289 25.2255 130.513 25.2593 129.804 25.2593L129.678 25.2588C125.549 25.2221 123.763 23.3657 123.763 19.0372V10.5951H120.692V7.43349H123.763V2.22005H127.746ZM154.298 7.02937C159.326 7.02937 162.768 10.8301 162.768 16.245L162.768 16.322C162.768 16.6947 162.764 17.2451 162.701 17.5905H149.809C150.181 20.2477 152.138 22.0305 154.838 22.0305C156.593 22.0305 158.044 21.2231 159.191 19.8105L161.992 21.7946C160.339 24.0146 157.841 25.2592 154.872 25.2592C149.371 25.2592 145.76 21.4923 145.76 16.1446C145.76 10.864 149.169 7.02937 154.298 7.02937ZM35.7386 7.02937C41.509 7.02937 43.2304 10.1238 43.2304 14.597V24.8552H39.2482V23.4093C37.9994 24.62 36.1433 25.2592 34.1185 25.2592C30.3049 25.2592 27.538 22.9049 27.538 19.5746C27.538 16.245 30.3049 13.8907 34.1185 13.8907C36.2786 13.8907 37.8981 14.5299 39.2482 15.5725V13.9246C39.2482 11.7385 38.3034 10.2919 35.2659 10.2919C33.6798 10.2919 32.1276 10.8301 30.8116 11.9066L28.5167 9.61945C30.5415 7.90382 33.0724 7.02937 35.7386 7.02937ZM111.459 7.02937C117.23 7.02937 118.951 10.1238 118.951 14.597V24.8552H114.969V23.4093C113.72 24.62 111.864 25.2592 109.839 25.2592C106.026 25.2592 103.259 22.9049 103.259 19.5746C103.259 16.245 106.026 13.8907 109.839 13.8907C111.999 13.8907 113.619 14.5299 114.969 15.5725V13.9246C114.969 11.7385 114.024 10.2919 110.987 10.2919C109.401 10.2919 107.849 10.8301 106.532 11.9066L104.238 9.61945C106.262 7.90382 108.793 7.02937 111.459 7.02937ZM50.9714 7.43359V24.8561H46.9891V7.43359H50.9714ZM174.887 7.02937C175.258 7.02937 175.663 7.06323 176 7.0965V10.3929C175.663 10.3591 175.089 10.3258 174.583 10.3258C172.525 10.3258 170.635 11.3684 169.622 12.9491V24.8552H165.64V7.43333H169.622V9.55173C170.803 7.97095 172.558 7.02937 174.887 7.02937ZM94.8932 7.02937C98.5381 7.02937 100.563 9.28322 100.563 13.4535V24.8552H96.5807V14.0927C96.5807 11.6375 95.8046 10.2581 93.6111 10.2581C92.1263 10.2581 90.4723 11.1664 89.5615 12.4109C89.6288 12.9153 89.6288 13.4196 89.6288 13.9578V24.8552H85.6466V14.0927C85.6466 11.6375 84.9379 10.2581 82.677 10.2581C81.1583 10.2581 79.6055 11.0992 78.6608 12.2428V24.8552H74.6785V7.43333H78.6608V9.18223C80.0782 7.90382 81.9003 7.02937 83.9931 7.02937C86.254 7.02937 87.9074 7.93768 88.7848 9.61945C90.3036 8.20679 92.1937 7.02937 94.8932 7.02937ZM64.747 7.02937C68.4253 7.02937 70.9228 9.31648 70.9228 13.5545V24.8552H66.9405V14.126C66.9405 11.6707 65.8605 10.2581 63.5656 10.2581L63.4768 10.2588C61.5548 10.2927 59.8057 11.42 58.8752 12.6129V24.8552H54.893V7.43333H58.8752V9.45134C60.2247 8.1058 62.2162 7.02937 64.747 7.02937ZM110.852 17.1191C108.692 17.1191 107.308 17.9264 107.308 19.5743C107.308 21.2228 108.692 22.0301 110.852 22.0301L110.943 22.0295C112.431 22.0097 113.911 21.5043 114.969 20.4826V18.6666C113.856 17.6573 112.438 17.1191 110.852 17.1191ZM35.1312 17.1191C32.9711 17.1191 31.5876 17.9264 31.5876 19.5743C31.5876 21.2228 32.9711 22.0301 35.1312 22.0301L35.2223 22.0295C36.7099 22.0097 38.1897 21.5043 39.2481 20.4826V18.6666C38.1347 17.6573 36.7173 17.1191 35.1312 17.1191ZM154.298 10.2584L154.223 10.2589C151.768 10.2908 150.143 11.8999 149.776 14.5635H158.753C158.55 11.9069 156.694 10.2584 154.298 10.2584ZM48.9806 0C50.364 0 51.4441 1.04257 51.4441 2.42197L51.4435 2.47844C51.4144 3.82914 50.3451 4.84334 48.9806 4.84334C47.5965 4.84334 46.5171 3.80077 46.5171 2.42197C46.5171 1.04257 47.5965 0 48.9806 0Z" fill="#0802A3"/>
</g>
<defs>
<clipPath id="clip0_62_65">
<rect width="176" height="25.344" fill="white"/>
</clipPath>
</defs>
</svg>
