<svg width="525" height="525" viewBox="0 0 525 525" fill="none" xmlns="http://www.w3.org/2000/svg">
<g clip-path="url(#clip0_9_188)">
<path d="M305.753 60.7665C279.563 97.6128 249.22 141.354 240.341 195.075L240.418 237.126L322.581 230.355C335.889 201.536 362.818 131.489 386.665 99.7162C410.512 67.9437 389.22 42.0105 379.173 34.7637C353.679 19.5075 329.811 26.9211 305.753 60.7665Z" fill="url(#paint0_radial_9_188)"/>
<path d="M305.753 60.7665C279.563 97.6128 249.22 141.354 240.341 195.075L240.418 237.126L322.581 230.355C335.889 201.536 362.818 131.489 386.665 99.7162C410.512 67.9437 389.22 42.0105 379.173 34.7637C353.679 19.5075 329.811 26.9211 305.753 60.7665Z" fill="url(#paint1_radial_9_188)"/>
<path d="M305.753 60.7665C279.563 97.6128 249.22 141.354 240.341 195.075L240.418 237.126L322.581 230.355C335.889 201.536 362.818 131.489 386.665 99.7162C410.512 67.9437 389.22 42.0105 379.173 34.7637C353.679 19.5075 329.811 26.9211 305.753 60.7665Z" fill="url(#paint2_radial_9_188)"/>
<path d="M305.753 60.7665C279.563 97.6128 249.22 141.354 240.341 195.075L240.418 237.126L322.581 230.355C335.889 201.536 362.818 131.489 386.665 99.7162C410.512 67.9437 389.22 42.0105 379.173 34.7637C353.679 19.5075 329.811 26.9211 305.753 60.7665Z" fill="url(#paint3_radial_9_188)"/>
<path d="M305.753 60.7665C279.563 97.6128 249.22 141.354 240.341 195.075L240.418 237.126L322.581 230.355C335.889 201.536 362.818 131.489 386.665 99.7162C410.512 67.9437 389.22 42.0105 379.173 34.7637C353.679 19.5075 329.811 26.9211 305.753 60.7665Z" fill="url(#paint4_radial_9_188)"/>
<path d="M305.753 60.7665C279.563 97.6128 249.22 141.354 240.341 195.075L240.418 237.126L322.581 230.355C335.889 201.536 362.818 131.489 386.665 99.7162C410.512 67.9437 389.22 42.0105 379.173 34.7637C353.679 19.5075 329.811 26.9211 305.753 60.7665Z" fill="url(#paint5_radial_9_188)"/>
<path d="M305.753 60.7665C279.563 97.6128 249.22 141.354 240.341 195.075L240.418 237.126L322.581 230.355C335.889 201.536 362.818 131.489 386.665 99.7162C410.512 67.9437 389.22 42.0105 379.173 34.7637C353.679 19.5075 329.811 26.9211 305.753 60.7665Z" fill="url(#paint6_radial_9_188)"/>
<path d="M305.753 60.7665C279.563 97.6128 249.22 141.354 240.341 195.075L240.418 237.126L322.581 230.355C335.889 201.536 362.818 131.489 386.665 99.7162C410.512 67.9437 389.22 42.0105 379.173 34.7637C353.679 19.5075 329.811 26.9211 305.753 60.7665Z" fill="url(#paint7_radial_9_188)"/>
<path d="M305.753 60.7665C279.563 97.6128 249.22 141.354 240.341 195.075L240.418 237.126L322.581 230.355C335.889 201.536 362.818 131.489 386.665 99.7162C410.512 67.9437 389.22 42.0105 379.173 34.7637C353.679 19.5075 329.811 26.9211 305.753 60.7665Z" fill="url(#paint8_radial_9_188)"/>
<path d="M305.753 60.7665C279.563 97.6128 249.22 141.354 240.341 195.075L240.418 237.126L322.581 230.355C335.889 201.536 362.818 131.489 386.665 99.7162C410.512 67.9437 389.22 42.0105 379.173 34.7637C353.679 19.5075 329.811 26.9211 305.753 60.7665Z" fill="url(#paint9_radial_9_188)"/>
<path d="M305.753 60.7665C279.563 97.6128 249.22 141.354 240.341 195.075L240.418 237.126L322.581 230.355C335.889 201.536 362.818 131.489 386.665 99.7162C410.512 67.9437 389.22 42.0105 379.173 34.7637C353.679 19.5075 329.811 26.9211 305.753 60.7665Z" fill="url(#paint10_radial_9_188)"/>
<path d="M305.753 60.7665C279.563 97.6128 249.22 141.354 240.341 195.075L240.418 237.126L322.581 230.355C335.889 201.536 362.818 131.489 386.665 99.7162C410.512 67.9437 389.22 42.0105 379.173 34.7637C353.679 19.5075 329.811 26.9211 305.753 60.7665Z" fill="url(#paint11_radial_9_188)"/>
<path d="M305.753 60.7665C279.563 97.6128 249.22 141.354 240.341 195.075L240.418 237.126L322.581 230.355C335.889 201.536 362.818 131.489 386.665 99.7162C410.512 67.9437 389.22 42.0105 379.173 34.7637C353.679 19.5075 329.811 26.9211 305.753 60.7665Z" fill="url(#paint12_radial_9_188)"/>
<path d="M305.753 60.7665C279.563 97.6128 249.22 141.354 240.341 195.075L240.418 237.126L322.581 230.355C335.889 201.536 362.818 131.489 386.665 99.7162C410.512 67.9437 389.22 42.0105 379.173 34.7637C353.679 19.5075 329.811 26.9211 305.753 60.7665Z" fill="url(#paint13_radial_9_188)"/>
<path d="M111.637 346.789L102.438 269.771L100.502 246.283L323.331 227.918C322.438 215.16 288.174 167.438 244.964 124.701C210.134 90.2513 219.264 57.0313 235.499 44.4545C259.739 25.6772 285.752 40.0788 300.055 55.0547C314.358 70.0305 337.488 93.715 364.41 135.296C389.8 174.512 407.117 221.013 410.296 259.593C414.128 306.079 420.763 340.462 401.765 383.849C377.39 439.516 322.226 468.211 268.886 472.607C181.088 479.843 120.677 421.884 111.637 346.789Z" fill="#FFC650"/>
<path d="M111.637 346.789L102.438 269.771L100.502 246.283L323.331 227.918C322.438 215.16 288.174 167.438 244.964 124.701C210.134 90.2513 219.264 57.0313 235.499 44.4545C259.739 25.6772 285.752 40.0788 300.055 55.0547C314.358 70.0305 337.488 93.715 364.41 135.296C389.8 174.512 407.117 221.013 410.296 259.593C414.128 306.079 420.763 340.462 401.765 383.849C377.39 439.516 322.226 468.211 268.886 472.607C181.088 479.843 120.677 421.884 111.637 346.789Z" fill="url(#paint14_radial_9_188)"/>
<path d="M111.637 346.789L102.438 269.771L100.502 246.283L323.331 227.918C322.438 215.16 288.174 167.438 244.964 124.701C210.134 90.2513 219.264 57.0313 235.499 44.4545C259.739 25.6772 285.752 40.0788 300.055 55.0547C314.358 70.0305 337.488 93.715 364.41 135.296C389.8 174.512 407.117 221.013 410.296 259.593C414.128 306.079 420.763 340.462 401.765 383.849C377.39 439.516 322.226 468.211 268.886 472.607C181.088 479.843 120.677 421.884 111.637 346.789Z" fill="url(#paint15_radial_9_188)"/>
<path d="M111.637 346.789L102.438 269.771L100.502 246.283L323.331 227.918C322.438 215.16 288.174 167.438 244.964 124.701C210.134 90.2513 219.264 57.0313 235.499 44.4545C259.739 25.6772 285.752 40.0788 300.055 55.0547C314.358 70.0305 337.488 93.715 364.41 135.296C389.8 174.512 407.117 221.013 410.296 259.593C414.128 306.079 420.763 340.462 401.765 383.849C377.39 439.516 322.226 468.211 268.886 472.607C181.088 479.843 120.677 421.884 111.637 346.789Z" fill="url(#paint16_radial_9_188)"/>
<path d="M111.637 346.789L102.438 269.771L100.502 246.283L323.331 227.918C322.438 215.16 288.174 167.438 244.964 124.701C210.134 90.2513 219.264 57.0313 235.499 44.4545C259.739 25.6772 285.752 40.0788 300.055 55.0547C314.358 70.0305 337.488 93.715 364.41 135.296C389.8 174.512 407.117 221.013 410.296 259.593C414.128 306.079 420.763 340.462 401.765 383.849C377.39 439.516 322.226 468.211 268.886 472.607C181.088 479.843 120.677 421.884 111.637 346.789Z" fill="url(#paint17_radial_9_188)"/>
<path d="M111.637 346.789L102.438 269.771L100.502 246.283L323.331 227.918C322.438 215.16 288.174 167.438 244.964 124.701C210.134 90.2513 219.264 57.0313 235.499 44.4545C259.739 25.6772 285.752 40.0788 300.055 55.0547C314.358 70.0305 337.488 93.715 364.41 135.296C389.8 174.512 407.117 221.013 410.296 259.593C414.128 306.079 420.763 340.462 401.765 383.849C377.39 439.516 322.226 468.211 268.886 472.607C181.088 479.843 120.677 421.884 111.637 346.789Z" fill="url(#paint18_radial_9_188)"/>
<path d="M111.637 346.789L102.438 269.771L100.502 246.283L323.331 227.918C322.438 215.16 288.174 167.438 244.964 124.701C210.134 90.2513 219.264 57.0313 235.499 44.4545C259.739 25.6772 285.752 40.0788 300.055 55.0547C314.358 70.0305 337.488 93.715 364.41 135.296C389.8 174.512 407.117 221.013 410.296 259.593C414.128 306.079 420.763 340.462 401.765 383.849C377.39 439.516 322.226 468.211 268.886 472.607C181.088 479.843 120.677 421.884 111.637 346.789Z" fill="url(#paint19_radial_9_188)"/>
<path d="M111.637 346.789L102.438 269.771L100.502 246.283L323.331 227.918C322.438 215.16 288.174 167.438 244.964 124.701C210.134 90.2513 219.264 57.0313 235.499 44.4545C259.739 25.6772 285.752 40.0788 300.055 55.0547C314.358 70.0305 337.488 93.715 364.41 135.296C389.8 174.512 407.117 221.013 410.296 259.593C414.128 306.079 420.763 340.462 401.765 383.849C377.39 439.516 322.226 468.211 268.886 472.607C181.088 479.843 120.677 421.884 111.637 346.789Z" fill="url(#paint20_radial_9_188)"/>
<path d="M111.637 346.789L102.438 269.771L100.502 246.283L323.331 227.918C322.438 215.16 288.174 167.438 244.964 124.701C210.134 90.2513 219.264 57.0313 235.499 44.4545C259.739 25.6772 285.752 40.0788 300.055 55.0547C314.358 70.0305 337.488 93.715 364.41 135.296C389.8 174.512 407.117 221.013 410.296 259.593C414.128 306.079 420.763 340.462 401.765 383.849C377.39 439.516 322.226 468.211 268.886 472.607C181.088 479.843 120.677 421.884 111.637 346.789Z" fill="url(#paint21_radial_9_188)"/>
<path d="M111.637 346.789L102.438 269.771L100.502 246.283L323.331 227.918C322.438 215.16 288.174 167.438 244.964 124.701C210.134 90.2513 219.264 57.0313 235.499 44.4545C259.739 25.6772 285.752 40.0788 300.055 55.0547C314.358 70.0305 337.488 93.715 364.41 135.296C389.8 174.512 407.117 221.013 410.296 259.593C414.128 306.079 420.763 340.462 401.765 383.849C377.39 439.516 322.226 468.211 268.886 472.607C181.088 479.843 120.677 421.884 111.637 346.789Z" fill="url(#paint22_radial_9_188)"/>
<path d="M111.637 346.789L102.438 269.771L100.502 246.283L323.331 227.918C322.438 215.16 288.174 167.438 244.964 124.701C210.134 90.2513 219.264 57.0313 235.499 44.4545C259.739 25.6772 285.752 40.0788 300.055 55.0547C314.358 70.0305 337.488 93.715 364.41 135.296C389.8 174.512 407.117 221.013 410.296 259.593C414.128 306.079 420.763 340.462 401.765 383.849C377.39 439.516 322.226 468.211 268.886 472.607C181.088 479.843 120.677 421.884 111.637 346.789Z" fill="url(#paint23_radial_9_188)"/>
<path d="M111.637 346.789L102.438 269.771L100.502 246.283L323.331 227.918C322.438 215.16 288.174 167.438 244.964 124.701C210.134 90.2513 219.264 57.0313 235.499 44.4545C259.739 25.6772 285.752 40.0788 300.055 55.0547C314.358 70.0305 337.488 93.715 364.41 135.296C389.8 174.512 407.117 221.013 410.296 259.593C414.128 306.079 420.763 340.462 401.765 383.849C377.39 439.516 322.226 468.211 268.886 472.607C181.088 479.843 120.677 421.884 111.637 346.789Z" fill="url(#paint24_radial_9_188)"/>
<path d="M111.637 346.789L102.438 269.771L100.502 246.283L323.331 227.918C322.438 215.16 288.174 167.438 244.964 124.701C210.134 90.2513 219.264 57.0313 235.499 44.4545C259.739 25.6772 285.752 40.0788 300.055 55.0547C314.358 70.0305 337.488 93.715 364.41 135.296C389.8 174.512 407.117 221.013 410.296 259.593C414.128 306.079 420.763 340.462 401.765 383.849C377.39 439.516 322.226 468.211 268.886 472.607C181.088 479.843 120.677 421.884 111.637 346.789Z" fill="url(#paint25_radial_9_188)"/>
<path d="M111.637 346.789L102.438 269.771L100.502 246.283L323.331 227.918C322.438 215.16 288.174 167.438 244.964 124.701C210.134 90.2513 219.264 57.0313 235.499 44.4545C259.739 25.6772 285.752 40.0788 300.055 55.0547C314.358 70.0305 337.488 93.715 364.41 135.296C389.8 174.512 407.117 221.013 410.296 259.593C414.128 306.079 420.763 340.462 401.765 383.849C377.39 439.516 322.226 468.211 268.886 472.607C181.088 479.843 120.677 421.884 111.637 346.789Z" fill="url(#paint26_radial_9_188)"/>
<path d="M235.5 44.4577C259.74 25.6805 285.753 40.082 300.056 55.0579C314.359 70.0338 337.489 93.7182 364.41 135.299C378.948 157.753 390.839 182.596 398.945 206.972C397.125 222.834 377.545 256.06 357.216 258.496C336.886 260.932 324.3 241.751 323.332 227.921C322.439 215.164 288.175 167.441 244.965 124.704C210.135 90.2545 219.265 57.0345 235.5 44.4577Z" fill="#FEBD27"/>
<path d="M235.5 44.4577C259.74 25.6805 285.753 40.082 300.056 55.0579C314.359 70.0338 337.489 93.7182 364.41 135.299C378.948 157.753 390.839 182.596 398.945 206.972C397.125 222.834 377.545 256.06 357.216 258.496C336.886 260.932 324.3 241.751 323.332 227.921C322.439 215.164 288.175 167.441 244.965 124.704C210.135 90.2545 219.265 57.0345 235.5 44.4577Z" fill="url(#paint27_radial_9_188)"/>
<path d="M235.5 44.4577C259.74 25.6805 285.753 40.082 300.056 55.0579C314.359 70.0338 337.489 93.7182 364.41 135.299C378.948 157.753 390.839 182.596 398.945 206.972C397.125 222.834 377.545 256.06 357.216 258.496C336.886 260.932 324.3 241.751 323.332 227.921C322.439 215.164 288.175 167.441 244.965 124.704C210.135 90.2545 219.265 57.0345 235.5 44.4577Z" fill="url(#paint28_radial_9_188)"/>
<path d="M235.5 44.4577C259.74 25.6805 285.753 40.082 300.056 55.0579C314.359 70.0338 337.489 93.7182 364.41 135.299C378.948 157.753 390.839 182.596 398.945 206.972C397.125 222.834 377.545 256.06 357.216 258.496C336.886 260.932 324.3 241.751 323.332 227.921C322.439 215.164 288.175 167.441 244.965 124.704C210.135 90.2545 219.265 57.0345 235.5 44.4577Z" fill="url(#paint29_radial_9_188)"/>
<path d="M97.4045 208.694C95.624 187.09 113.056 168.021 136.34 166.102C159.624 164.183 179.943 180.141 181.723 201.745L184.69 237.742C186.47 259.346 169.262 281.129 145.978 283.048C122.694 284.967 102.152 266.295 100.371 244.691L97.4045 208.694Z" fill="url(#paint30_radial_9_188)"/>
<path d="M97.4045 208.694C95.624 187.09 113.056 168.021 136.34 166.102C159.624 164.183 179.943 180.141 181.723 201.745L184.69 237.742C186.47 259.346 169.262 281.129 145.978 283.048C122.694 284.967 102.152 266.295 100.371 244.691L97.4045 208.694Z" fill="url(#paint31_radial_9_188)"/>
<path d="M97.4045 208.694C95.624 187.09 113.056 168.021 136.34 166.102C159.624 164.183 179.943 180.141 181.723 201.745L184.69 237.742C186.47 259.346 169.262 281.129 145.978 283.048C122.694 284.967 102.152 266.295 100.371 244.691L97.4045 208.694Z" fill="url(#paint32_radial_9_188)"/>
<path d="M97.4045 208.694C95.624 187.09 113.056 168.021 136.34 166.102C159.624 164.183 179.943 180.141 181.723 201.745L184.69 237.742C186.47 259.346 169.262 281.129 145.978 283.048C122.694 284.967 102.152 266.295 100.371 244.691L97.4045 208.694Z" fill="url(#paint33_radial_9_188)"/>
<path d="M97.4045 208.694C95.624 187.09 113.056 168.021 136.34 166.102C159.624 164.183 179.943 180.141 181.723 201.745L184.69 237.742C186.47 259.346 169.262 281.129 145.978 283.048C122.694 284.967 102.152 266.295 100.371 244.691L97.4045 208.694Z" fill="url(#paint34_radial_9_188)"/>
<path d="M166.665 177.979C166.237 172.786 177.94 147.561 203.986 145.414C230.032 143.268 248.414 160.525 250.165 181.766L253.819 226.105C255.868 250.967 247.06 285.624 215.754 288.204C193.957 290.001 174.522 273.306 173.238 257.729L166.665 177.979Z" fill="url(#paint35_radial_9_188)"/>
<path d="M166.665 177.979C166.237 172.786 177.94 147.561 203.986 145.414C230.032 143.268 248.414 160.525 250.165 181.766L253.819 226.105C255.868 250.967 247.06 285.624 215.754 288.204C193.957 290.001 174.522 273.306 173.238 257.729L166.665 177.979Z" fill="url(#paint36_radial_9_188)"/>
<path d="M166.665 177.979C166.237 172.786 177.94 147.561 203.986 145.414C230.032 143.268 248.414 160.525 250.165 181.766L253.819 226.105C255.868 250.967 247.06 285.624 215.754 288.204C193.957 290.001 174.522 273.306 173.238 257.729L166.665 177.979Z" fill="url(#paint37_radial_9_188)"/>
<path d="M166.665 177.979C166.237 172.786 177.94 147.561 203.986 145.414C230.032 143.268 248.414 160.525 250.165 181.766L253.819 226.105C255.868 250.967 247.06 285.624 215.754 288.204C193.957 290.001 174.522 273.306 173.238 257.729L166.665 177.979Z" fill="url(#paint38_radial_9_188)"/>
<path d="M281.218 224.008C256.322 226.06 237.803 247.906 239.854 272.802C241.906 297.698 263.752 316.218 288.649 314.166L312.663 312.187C317.318 311.803 321.889 313.587 325.054 317.021L359.199 354.076C378.744 375.287 414.07 359.791 411.701 331.046L409.528 304.679C405.735 258.662 368.309 223.482 323.403 221.312C320.649 221.026 317.829 220.99 314.969 221.226L281.218 224.008Z" fill="url(#paint39_radial_9_188)"/>
<path d="M281.218 224.008C256.322 226.06 237.803 247.906 239.854 272.802C241.906 297.698 263.752 316.218 288.649 314.166L312.663 312.187C317.318 311.803 321.889 313.587 325.054 317.021L359.199 354.076C378.744 375.287 414.07 359.791 411.701 331.046L409.528 304.679C405.735 258.662 368.309 223.482 323.403 221.312C320.649 221.026 317.829 220.99 314.969 221.226L281.218 224.008Z" fill="url(#paint40_radial_9_188)"/>
<path d="M281.218 224.008C256.322 226.06 237.803 247.906 239.854 272.802C241.906 297.698 263.752 316.218 288.649 314.166L312.663 312.187C317.318 311.803 321.889 313.587 325.054 317.021L359.199 354.076C378.744 375.287 414.07 359.791 411.701 331.046L409.528 304.679C405.735 258.662 368.309 223.482 323.403 221.312C320.649 221.026 317.829 220.99 314.969 221.226L281.218 224.008Z" fill="url(#paint41_radial_9_188)"/>
<path d="M281.218 224.008C256.322 226.06 237.803 247.906 239.854 272.802C241.906 297.698 263.752 316.218 288.649 314.166L312.663 312.187C317.318 311.803 321.889 313.587 325.054 317.021L359.199 354.076C378.744 375.287 414.07 359.791 411.701 331.046L409.528 304.679C405.735 258.662 368.309 223.482 323.403 221.312C320.649 221.026 317.829 220.99 314.969 221.226L281.218 224.008Z" fill="url(#paint42_linear_9_188)"/>
<path d="M281.218 224.008C256.322 226.06 237.803 247.906 239.854 272.802C241.906 297.698 263.752 316.218 288.649 314.166L312.663 312.187C317.318 311.803 321.889 313.587 325.054 317.021L359.199 354.076C378.744 375.287 414.07 359.791 411.701 331.046L409.528 304.679C405.735 258.662 368.309 223.482 323.403 221.312C320.649 221.026 317.829 220.99 314.969 221.226L281.218 224.008Z" fill="url(#paint43_radial_9_188)"/>
<path d="M281.218 224.008C256.322 226.06 237.803 247.906 239.854 272.802C241.906 297.698 263.752 316.218 288.649 314.166L312.663 312.187C317.318 311.803 321.889 313.587 325.054 317.021L359.199 354.076C378.744 375.287 414.07 359.791 411.701 331.046L409.528 304.679C405.735 258.662 368.309 223.482 323.403 221.312C320.649 221.026 317.829 220.99 314.969 221.226L281.218 224.008Z" fill="url(#paint44_radial_9_188)"/>
<path d="M281.218 224.008C256.322 226.06 237.803 247.906 239.854 272.802C241.906 297.698 263.752 316.218 288.649 314.166L312.663 312.187C317.318 311.803 321.889 313.587 325.054 317.021L359.199 354.076C378.744 375.287 414.07 359.791 411.701 331.046L409.528 304.679C405.735 258.662 368.309 223.482 323.403 221.312C320.649 221.026 317.829 220.99 314.969 221.226L281.218 224.008Z" fill="url(#paint45_radial_9_188)"/>
</g>
<defs>
<radialGradient id="paint0_radial_9_188" cx="0" cy="0" r="1" gradientUnits="userSpaceOnUse" gradientTransform="translate(375.526 65.4741) rotate(123.052) scale(170.15 68.3254)">
<stop offset="0.109516" stop-color="#FFE966"/>
<stop offset="0.544787" stop-color="#FCC728"/>
<stop offset="1" stop-color="#EEB62C"/>
</radialGradient>
<radialGradient id="paint1_radial_9_188" cx="0" cy="0" r="1" gradientUnits="userSpaceOnUse" gradientTransform="translate(358.434 175.237) rotate(-148.993) scale(122.506 329.518)">
<stop offset="0.749914" stop-color="#D09937" stop-opacity="0"/>
<stop offset="0.926997" stop-color="#D09937"/>
</radialGradient>
<radialGradient id="paint2_radial_9_188" cx="0" cy="0" r="1" gradientUnits="userSpaceOnUse" gradientTransform="translate(297.861 218.724) rotate(-94.7114) scale(82.4121 56.7059)">
<stop offset="0.132744" stop-color="#FDC54F"/>
<stop offset="0.586207" stop-color="#EB9C1B"/>
<stop offset="1" stop-color="#D67426"/>
</radialGradient>
<radialGradient id="paint3_radial_9_188" cx="0" cy="0" r="1" gradientUnits="userSpaceOnUse" gradientTransform="translate(299.306 143.992) rotate(61.1095) scale(228.959 36.0386)">
<stop offset="0.602608" stop-color="#C16009"/>
<stop offset="1" stop-color="#CA7112" stop-opacity="0"/>
</radialGradient>
<radialGradient id="paint4_radial_9_188" cx="0" cy="0" r="1" gradientUnits="userSpaceOnUse" gradientTransform="translate(242.057 164.393) rotate(85.2886) scale(197.979 30.0927)">
<stop offset="0.423077" stop-color="#DB740B"/>
<stop offset="1" stop-color="#DB740B" stop-opacity="0"/>
</radialGradient>
<radialGradient id="paint5_radial_9_188" cx="0" cy="0" r="1" gradientUnits="userSpaceOnUse" gradientTransform="translate(248.119 203.338) rotate(85.2886) scale(123.618 13.2617)">
<stop offset="0.444444" stop-color="#B03B0A"/>
<stop offset="1" stop-color="#DA7715" stop-opacity="0"/>
</radialGradient>
<radialGradient id="paint6_radial_9_188" cx="0" cy="0" r="1" gradientUnits="userSpaceOnUse" gradientTransform="translate(262.132 148.481) rotate(-116.762) scale(40.3701 34.4087)">
<stop stop-color="#D4924C"/>
<stop offset="1" stop-color="#D4924C" stop-opacity="0"/>
</radialGradient>
<radialGradient id="paint7_radial_9_188" cx="0" cy="0" r="1" gradientUnits="userSpaceOnUse" gradientTransform="translate(248.15 169.119) rotate(-70.9294) scale(30.5374 14.3794)">
<stop stop-color="#C37C50"/>
<stop offset="1" stop-color="#D87D31" stop-opacity="0"/>
</radialGradient>
<radialGradient id="paint8_radial_9_188" cx="0" cy="0" r="1" gradientUnits="userSpaceOnUse" gradientTransform="translate(376.986 60.1262) rotate(127.187) scale(136.173 63.1804)">
<stop stop-color="#FFE655"/>
<stop offset="0.909068" stop-color="#F8C228"/>
<stop offset="1" stop-color="#F8C228" stop-opacity="0"/>
</radialGradient>
<radialGradient id="paint9_radial_9_188" cx="0" cy="0" r="1" gradientUnits="userSpaceOnUse" gradientTransform="translate(310.383 116.941) rotate(50.2051) scale(97.2367 46.8356)">
<stop offset="0.581854" stop-color="#F99E40"/>
<stop offset="1" stop-color="#F99E40" stop-opacity="0"/>
</radialGradient>
<radialGradient id="paint10_radial_9_188" cx="0" cy="0" r="1" gradientUnits="userSpaceOnUse" gradientTransform="translate(341.081 97.3025) rotate(134.75) scale(34.9784 38.9863)">
<stop stop-color="#FFBC65"/>
<stop offset="1" stop-color="#FFBC65" stop-opacity="0"/>
</radialGradient>
<radialGradient id="paint11_radial_9_188" cx="0" cy="0" r="1" gradientUnits="userSpaceOnUse" gradientTransform="translate(365.292 73.9214) rotate(125.614) scale(53.4282 23.763)">
<stop stop-color="#FFE866"/>
<stop offset="1" stop-color="#FFE866" stop-opacity="0"/>
</radialGradient>
<radialGradient id="paint12_radial_9_188" cx="0" cy="0" r="1" gradientUnits="userSpaceOnUse" gradientTransform="translate(372.256 71.9218) rotate(145.68) scale(108.954 70.402)">
<stop offset="0.562524" stop-color="#D29F51" stop-opacity="0"/>
<stop offset="0.872634" stop-color="#D29F51"/>
<stop offset="0.99198" stop-color="#D29F51" stop-opacity="0"/>
</radialGradient>
<radialGradient id="paint13_radial_9_188" cx="0" cy="0" r="1" gradientUnits="userSpaceOnUse" gradientTransform="translate(342.289 65.8371) rotate(103.234) scale(98.5748 88.934)">
<stop offset="0.562524" stop-color="#D29F51" stop-opacity="0"/>
<stop offset="0.872634" stop-color="#D29F51"/>
<stop offset="0.99198" stop-color="#D29F51" stop-opacity="0"/>
</radialGradient>
<radialGradient id="paint14_radial_9_188" cx="0" cy="0" r="1" gradientUnits="userSpaceOnUse" gradientTransform="translate(224.975 349.231) rotate(85.2886) scale(248.184 253.39)">
<stop stop-color="#FFAD50"/>
<stop offset="1" stop-color="#FFAD50" stop-opacity="0"/>
</radialGradient>
<radialGradient id="paint15_radial_9_188" cx="0" cy="0" r="1" gradientUnits="userSpaceOnUse" gradientTransform="translate(259.149 296.99) rotate(88.2905) scale(207.736 213.846)">
<stop offset="0.707148" stop-color="#F783A4" stop-opacity="0"/>
<stop offset="0.894565" stop-color="#FF7676"/>
</radialGradient>
<radialGradient id="paint16_radial_9_188" cx="0" cy="0" r="1" gradientUnits="userSpaceOnUse" gradientTransform="translate(108.383 445.334) rotate(52.7205) scale(214.687 82.231)">
<stop offset="0.402589" stop-color="#E78D4F"/>
<stop offset="1" stop-color="#E78D4F" stop-opacity="0"/>
</radialGradient>
<radialGradient id="paint17_radial_9_188" cx="0" cy="0" r="1" gradientUnits="userSpaceOnUse" gradientTransform="translate(54.1198 340.501) rotate(86.6433) scale(280.469 81.608)">
<stop offset="0.476427" stop-color="#E78D4F"/>
<stop offset="0.916329" stop-color="#E78D4F" stop-opacity="0"/>
</radialGradient>
<radialGradient id="paint18_radial_9_188" cx="0" cy="0" r="1" gradientUnits="userSpaceOnUse" gradientTransform="translate(238.322 292.053) rotate(9.32486) scale(152.321 56.2877)">
<stop offset="0.18222" stop-color="#DA6B1C"/>
<stop offset="0.916329" stop-color="#DA6B1C" stop-opacity="0"/>
</radialGradient>
<radialGradient id="paint19_radial_9_188" cx="0" cy="0" r="1" gradientUnits="userSpaceOnUse" gradientTransform="translate(179.685 261.005) rotate(-4.71138) scale(71.9922 36.2384)">
<stop offset="0.365854" stop-color="#AC3F06"/>
<stop offset="0.916329" stop-color="#AC3F06" stop-opacity="0"/>
</radialGradient>
<radialGradient id="paint20_radial_9_188" cx="0" cy="0" r="1" gradientUnits="userSpaceOnUse" gradientTransform="translate(294.488 293.127) rotate(0.868768) scale(82.8045 52.472)">
<stop offset="0.368149" stop-color="#D7520C"/>
<stop offset="0.916329" stop-color="#E48630" stop-opacity="0"/>
</radialGradient>
<radialGradient id="paint21_radial_9_188" cx="0" cy="0" r="1" gradientUnits="userSpaceOnUse" gradientTransform="translate(213.753 276.494) rotate(0.816154) scale(59.0048 37.3905)">
<stop offset="0.231445" stop-color="#C24B10"/>
<stop offset="0.533505" stop-color="#C24B10" stop-opacity="0"/>
</radialGradient>
<radialGradient id="paint22_radial_9_188" cx="0" cy="0" r="1" gradientUnits="userSpaceOnUse" gradientTransform="translate(400.597 219.75) rotate(69.81) scale(63.8895 45.0721)">
<stop offset="0.1275" stop-color="#FFEF64"/>
<stop offset="1" stop-color="#FFEF64" stop-opacity="0"/>
</radialGradient>
<radialGradient id="paint23_radial_9_188" cx="0" cy="0" r="1" gradientUnits="userSpaceOnUse" gradientTransform="translate(331.509 327.145) rotate(-137.564) scale(53.6231 6.02413)">
<stop offset="0.148252" stop-color="#FA915D"/>
<stop offset="1" stop-color="#FDB150" stop-opacity="0"/>
</radialGradient>
<radialGradient id="paint24_radial_9_188" cx="0" cy="0" r="1" gradientUnits="userSpaceOnUse" gradientTransform="translate(320.312 312.385) rotate(-137.59) scale(36.195 6.55661)">
<stop stop-color="#DE6113"/>
<stop offset="1" stop-color="#DE6113" stop-opacity="0"/>
</radialGradient>
<radialGradient id="paint25_radial_9_188" cx="0" cy="0" r="1" gradientUnits="userSpaceOnUse" gradientTransform="translate(164.298 333.797) rotate(2.66925) scale(92.1748 53.9136)">
<stop stop-color="#FFB450"/>
<stop offset="1" stop-color="#FFB450" stop-opacity="0"/>
</radialGradient>
<radialGradient id="paint26_radial_9_188" cx="0" cy="0" r="1" gradientUnits="userSpaceOnUse" gradientTransform="translate(344.879 374.042) rotate(46.943) scale(40.4617 20.0983)">
<stop stop-color="#FFC650"/>
<stop offset="1" stop-color="#FFC650" stop-opacity="0"/>
</radialGradient>
<radialGradient id="paint27_radial_9_188" cx="0" cy="0" r="1" gradientUnits="userSpaceOnUse" gradientTransform="translate(244.38 204.113) rotate(53.5921) scale(279.445 123.218)">
<stop offset="0.426918" stop-color="#DB7203"/>
<stop offset="0.613782" stop-color="#FFBA4D"/>
<stop offset="0.981075" stop-color="#FFEE64"/>
</radialGradient>
<radialGradient id="paint28_radial_9_188" cx="0" cy="0" r="1" gradientUnits="userSpaceOnUse" gradientTransform="translate(332.681 249.112) rotate(54.741) scale(67.0955 48.5574)">
<stop offset="0.485549" stop-color="#F29113"/>
<stop offset="1" stop-color="#F29113" stop-opacity="0"/>
</radialGradient>
<radialGradient id="paint29_radial_9_188" cx="0" cy="0" r="1" gradientUnits="userSpaceOnUse" gradientTransform="translate(207.406 32.2729) rotate(135.888) scale(102.973 74.5225)">
<stop offset="0.250825" stop-color="#F7B529"/>
<stop offset="1" stop-color="#F7B529" stop-opacity="0"/>
</radialGradient>
<radialGradient id="paint30_radial_9_188" cx="0" cy="0" r="1" gradientUnits="userSpaceOnUse" gradientTransform="translate(153.119 215.451) rotate(85.2886) scale(84.3066 57.8984)">
<stop offset="0.160221" stop-color="#FFD05E"/>
<stop offset="0.480663" stop-color="#FFBC2D"/>
<stop offset="0.853933" stop-color="#F7A64D"/>
</radialGradient>
<radialGradient id="paint31_radial_9_188" cx="0" cy="0" r="1" gradientUnits="userSpaceOnUse" gradientTransform="translate(102.846 274.722) rotate(-4.71138) scale(110.86 35.4033)">
<stop stop-color="#EA8464"/>
<stop offset="0.697248" stop-color="#FFA35C" stop-opacity="0"/>
</radialGradient>
<radialGradient id="paint32_radial_9_188" cx="0" cy="0" r="1" gradientUnits="userSpaceOnUse" gradientTransform="translate(144.698 176.7) rotate(85.2886) scale(114.619 67.0581)">
<stop offset="0.917355" stop-color="#DE8D49" stop-opacity="0"/>
<stop offset="1" stop-color="#DE8D49"/>
</radialGradient>
<radialGradient id="paint33_radial_9_188" cx="0" cy="0" r="1" gradientUnits="userSpaceOnUse" gradientTransform="translate(171.178 209.686) rotate(85.2886) scale(134.512 16.5772)">
<stop offset="0.423077" stop-color="#E98E14"/>
<stop offset="1" stop-color="#F9A52F" stop-opacity="0"/>
</radialGradient>
<radialGradient id="paint34_radial_9_188" cx="0" cy="0" r="1" gradientUnits="userSpaceOnUse" gradientTransform="translate(171.178 209.686) rotate(85.2886) scale(139.248 8.05177)">
<stop offset="0.423077" stop-color="#C85F1C"/>
<stop offset="1" stop-color="#DA7715" stop-opacity="0"/>
</radialGradient>
<radialGradient id="paint35_radial_9_188" cx="0" cy="0" r="1" gradientUnits="userSpaceOnUse" gradientTransform="translate(228.415 200.667) rotate(85.2886) scale(107.515 59.2588)">
<stop stop-color="#FFEC66"/>
<stop offset="0.578947" stop-color="#FFBC2A"/>
<stop offset="0.853933" stop-color="#FAA41C"/>
</radialGradient>
<radialGradient id="paint36_radial_9_188" cx="0" cy="0" r="1" gradientUnits="userSpaceOnUse" gradientTransform="translate(222.751 287.628) rotate(-4.71138) scale(144.932 60.1514)">
<stop stop-color="#F28558"/>
<stop offset="0.697248" stop-color="#FFA35C" stop-opacity="0"/>
</radialGradient>
<radialGradient id="paint37_radial_9_188" cx="0" cy="0" r="1" gradientUnits="userSpaceOnUse" gradientTransform="translate(253.887 261.775) rotate(-19.2115) scale(28.3745 30.1446)">
<stop offset="0.52459" stop-color="#B63401"/>
<stop offset="1" stop-color="#ED8915" stop-opacity="0"/>
</radialGradient>
<radialGradient id="paint38_radial_9_188" cx="0" cy="0" r="1" gradientUnits="userSpaceOnUse" gradientTransform="translate(235.301 284.217) rotate(85.2886) scale(38.3642 17.781)">
<stop stop-color="#E1683A"/>
<stop offset="1" stop-color="#E1683A" stop-opacity="0"/>
</radialGradient>
<radialGradient id="paint39_radial_9_188" cx="0" cy="0" r="1" gradientUnits="userSpaceOnUse" gradientTransform="translate(356.829 253.776) rotate(105.998) scale(83.0412 163.035)">
<stop stop-color="#FFE749"/>
<stop offset="1" stop-color="#FFB043"/>
</radialGradient>
<radialGradient id="paint40_radial_9_188" cx="0" cy="0" r="1" gradientUnits="userSpaceOnUse" gradientTransform="translate(315.041 357.97) rotate(-43.3148) scale(75.1526 79.1166)">
<stop offset="0.252172" stop-color="#F08127"/>
<stop offset="0.638864" stop-color="#FB945B"/>
<stop offset="1" stop-color="#FB945B" stop-opacity="0"/>
</radialGradient>
<radialGradient id="paint41_radial_9_188" cx="0" cy="0" r="1" gradientUnits="userSpaceOnUse" gradientTransform="translate(272.048 323.197) rotate(-66.9873) scale(63.49 119.073)">
<stop offset="0.148252" stop-color="#FA915D"/>
<stop offset="0.821931" stop-color="#EF8049" stop-opacity="0"/>
</radialGradient>
<linearGradient id="paint42_linear_9_188" x1="391.572" y1="369.722" x2="357.703" y2="309.192" gradientUnits="userSpaceOnUse">
<stop stop-color="#FFB953"/>
<stop offset="1" stop-color="#FFD338" stop-opacity="0"/>
</linearGradient>
<radialGradient id="paint43_radial_9_188" cx="0" cy="0" r="1" gradientUnits="userSpaceOnUse" gradientTransform="translate(317.39 359.439) rotate(-50.338) scale(137.738 171.098)">
<stop offset="0.737652" stop-color="#FFE64D" stop-opacity="0"/>
<stop offset="1" stop-color="#FFE64D"/>
</radialGradient>
<radialGradient id="paint44_radial_9_188" cx="0" cy="0" r="1" gradientUnits="userSpaceOnUse" gradientTransform="translate(321.501 250.034) rotate(-4.71138) scale(67.1078 22.4201)">
<stop offset="0.441796" stop-color="#FFE566"/>
<stop offset="1" stop-color="#FFE566" stop-opacity="0"/>
</radialGradient>
<radialGradient id="paint45_radial_9_188" cx="0" cy="0" r="1" gradientUnits="userSpaceOnUse" gradientTransform="translate(221.215 245.943) rotate(85.2886) scale(71.9922 66.7102)">
<stop offset="0.0484478" stop-color="#F4A51F"/>
<stop offset="1" stop-color="#E4A618" stop-opacity="0"/>
</radialGradient>
<clipPath id="clip0_9_188">
<rect width="485" height="485" fill="white" transform="translate(0.901367 40.7375) rotate(-4.71138)"/>
</clipPath>
</defs>
</svg>
